<mxfile host="app.diagrams.net" agent="Mozilla/5.0 (Macintosh; Intel Mac OS X 10_15_7) AppleWebKit/537.36 (KHTML, like Gecko) Chrome/126.0.0.0 Safari/537.36" version="24.7.14">
  <diagram name="Page-1" id="8ce9d11a-91a2-4d17-14d8-a56ed91bf033">
    <mxGraphModel dx="1598" dy="805" grid="1" gridSize="10" guides="1" tooltips="1" connect="1" arrows="1" fold="1" page="1" pageScale="1" pageWidth="1100" pageHeight="850" background="none" math="0" shadow="0">
      <root>
        <mxCell id="0" />
        <mxCell id="1" parent="0" />
        <mxCell id="hDUTuJh5oyR0SM-ZfKDi-3" value="" style="edgeStyle=orthogonalEdgeStyle;rounded=0;orthogonalLoop=1;jettySize=auto;html=1;" edge="1" parent="1" source="17ea667e15c223fc-2" target="hDUTuJh5oyR0SM-ZfKDi-2">
          <mxGeometry relative="1" as="geometry" />
        </mxCell>
        <mxCell id="17ea667e15c223fc-2" value="Suggest Thesis Topic&lt;div&gt;(Student)&lt;/div&gt;" style="rounded=1;whiteSpace=wrap;html=1;shadow=0;labelBackgroundColor=none;strokeWidth=1;fontFamily=Verdana;fontSize=12;align=center;" parent="1" vertex="1">
          <mxGeometry x="40" y="70" width="120" height="80" as="geometry" />
        </mxCell>
        <mxCell id="hDUTuJh5oyR0SM-ZfKDi-1" value="Messaging Service (Chat between Advisor and Student)" style="rounded=1;whiteSpace=wrap;html=1;shadow=0;labelBackgroundColor=none;strokeWidth=1;fontFamily=Verdana;fontSize=12;align=center;" vertex="1" parent="1">
          <mxGeometry x="40" y="264" width="740" height="55" as="geometry" />
        </mxCell>
        <mxCell id="hDUTuJh5oyR0SM-ZfKDi-5" value="" style="edgeStyle=orthogonalEdgeStyle;rounded=0;orthogonalLoop=1;jettySize=auto;html=1;" edge="1" parent="1" source="hDUTuJh5oyR0SM-ZfKDi-2" target="hDUTuJh5oyR0SM-ZfKDi-4">
          <mxGeometry relative="1" as="geometry" />
        </mxCell>
        <mxCell id="hDUTuJh5oyR0SM-ZfKDi-6" value="Rejected" style="edgeLabel;html=1;align=center;verticalAlign=middle;resizable=0;points=[];" vertex="1" connectable="0" parent="hDUTuJh5oyR0SM-ZfKDi-5">
          <mxGeometry x="-0.15" y="2" relative="1" as="geometry">
            <mxPoint as="offset" />
          </mxGeometry>
        </mxCell>
        <mxCell id="hDUTuJh5oyR0SM-ZfKDi-8" value="" style="edgeStyle=orthogonalEdgeStyle;rounded=0;orthogonalLoop=1;jettySize=auto;html=1;" edge="1" parent="1" source="hDUTuJh5oyR0SM-ZfKDi-2" target="hDUTuJh5oyR0SM-ZfKDi-7">
          <mxGeometry relative="1" as="geometry" />
        </mxCell>
        <mxCell id="hDUTuJh5oyR0SM-ZfKDi-9" value="Accepted" style="edgeLabel;html=1;align=center;verticalAlign=middle;resizable=0;points=[];" vertex="1" connectable="0" parent="hDUTuJh5oyR0SM-ZfKDi-8">
          <mxGeometry x="-0.2333" y="-1" relative="1" as="geometry">
            <mxPoint as="offset" />
          </mxGeometry>
        </mxCell>
        <mxCell id="hDUTuJh5oyR0SM-ZfKDi-2" value="Review&lt;div&gt;(Advisor)&lt;/div&gt;" style="rhombus;whiteSpace=wrap;html=1;fontFamily=Verdana;rounded=1;shadow=0;labelBackgroundColor=none;strokeWidth=1;" vertex="1" parent="1">
          <mxGeometry x="200" y="70" width="80" height="80" as="geometry" />
        </mxCell>
        <mxCell id="hDUTuJh5oyR0SM-ZfKDi-4" value="" style="ellipse;whiteSpace=wrap;html=1;fontFamily=Verdana;rounded=1;shadow=0;labelBackgroundColor=none;strokeWidth=1;" vertex="1" parent="1">
          <mxGeometry x="225" y="200" width="30" height="30" as="geometry" />
        </mxCell>
        <mxCell id="hDUTuJh5oyR0SM-ZfKDi-13" value="" style="edgeStyle=orthogonalEdgeStyle;rounded=0;orthogonalLoop=1;jettySize=auto;html=1;" edge="1" parent="1" source="hDUTuJh5oyR0SM-ZfKDi-7" target="hDUTuJh5oyR0SM-ZfKDi-12">
          <mxGeometry relative="1" as="geometry" />
        </mxCell>
        <mxCell id="hDUTuJh5oyR0SM-ZfKDi-7" value="Write Proposal&lt;div&gt;(Student)&lt;/div&gt;" style="whiteSpace=wrap;html=1;fontFamily=Verdana;rounded=1;shadow=0;labelBackgroundColor=none;strokeWidth=1;" vertex="1" parent="1">
          <mxGeometry x="342" y="80" width="120" height="60" as="geometry" />
        </mxCell>
        <mxCell id="hDUTuJh5oyR0SM-ZfKDi-15" value="" style="edgeStyle=orthogonalEdgeStyle;rounded=0;orthogonalLoop=1;jettySize=auto;html=1;" edge="1" parent="1" source="hDUTuJh5oyR0SM-ZfKDi-12" target="hDUTuJh5oyR0SM-ZfKDi-14">
          <mxGeometry relative="1" as="geometry" />
        </mxCell>
        <mxCell id="hDUTuJh5oyR0SM-ZfKDi-12" value="Write Thesis&lt;div&gt;(Student)&lt;/div&gt;" style="whiteSpace=wrap;html=1;fontFamily=Verdana;rounded=1;shadow=0;labelBackgroundColor=none;strokeWidth=1;" vertex="1" parent="1">
          <mxGeometry x="502" y="80" width="120" height="60" as="geometry" />
        </mxCell>
        <mxCell id="hDUTuJh5oyR0SM-ZfKDi-17" value="" style="edgeStyle=orthogonalEdgeStyle;rounded=0;orthogonalLoop=1;jettySize=auto;html=1;" edge="1" parent="1" source="hDUTuJh5oyR0SM-ZfKDi-14" target="hDUTuJh5oyR0SM-ZfKDi-16">
          <mxGeometry relative="1" as="geometry" />
        </mxCell>
        <mxCell id="hDUTuJh5oyR0SM-ZfKDi-14" value="Present Thesis&lt;div&gt;(Student)&lt;/div&gt;" style="whiteSpace=wrap;html=1;fontFamily=Verdana;rounded=1;shadow=0;labelBackgroundColor=none;strokeWidth=1;" vertex="1" parent="1">
          <mxGeometry x="662" y="80" width="120" height="60" as="geometry" />
        </mxCell>
        <mxCell id="hDUTuJh5oyR0SM-ZfKDi-19" value="" style="edgeStyle=orthogonalEdgeStyle;rounded=0;orthogonalLoop=1;jettySize=auto;html=1;" edge="1" parent="1" source="hDUTuJh5oyR0SM-ZfKDi-16" target="hDUTuJh5oyR0SM-ZfKDi-18">
          <mxGeometry relative="1" as="geometry" />
        </mxCell>
        <mxCell id="hDUTuJh5oyR0SM-ZfKDi-16" value="Assess Thesis&lt;div&gt;(Advisor)&lt;/div&gt;" style="whiteSpace=wrap;html=1;fontFamily=Verdana;rounded=1;shadow=0;labelBackgroundColor=none;strokeWidth=1;" vertex="1" parent="1">
          <mxGeometry x="822" y="80" width="120" height="60" as="geometry" />
        </mxCell>
        <mxCell id="hDUTuJh5oyR0SM-ZfKDi-21" value="" style="edgeStyle=orthogonalEdgeStyle;rounded=0;orthogonalLoop=1;jettySize=auto;html=1;" edge="1" parent="1" source="hDUTuJh5oyR0SM-ZfKDi-18" target="hDUTuJh5oyR0SM-ZfKDi-20">
          <mxGeometry relative="1" as="geometry" />
        </mxCell>
        <mxCell id="hDUTuJh5oyR0SM-ZfKDi-18" value="Grade Thesis&lt;div&gt;(Supervisor)&lt;/div&gt;" style="whiteSpace=wrap;html=1;fontFamily=Verdana;rounded=1;shadow=0;labelBackgroundColor=none;strokeWidth=1;" vertex="1" parent="1">
          <mxGeometry x="982" y="80" width="120" height="60" as="geometry" />
        </mxCell>
        <mxCell id="hDUTuJh5oyR0SM-ZfKDi-25" value="" style="edgeStyle=orthogonalEdgeStyle;rounded=0;orthogonalLoop=1;jettySize=auto;html=1;" edge="1" parent="1" source="hDUTuJh5oyR0SM-ZfKDi-20" target="hDUTuJh5oyR0SM-ZfKDi-24">
          <mxGeometry relative="1" as="geometry" />
        </mxCell>
        <mxCell id="hDUTuJh5oyR0SM-ZfKDi-20" value="Archive Thesis&lt;div&gt;(Advisor)&lt;/div&gt;" style="whiteSpace=wrap;html=1;fontFamily=Verdana;rounded=1;shadow=0;labelBackgroundColor=none;strokeWidth=1;" vertex="1" parent="1">
          <mxGeometry x="1142" y="80" width="120" height="60" as="geometry" />
        </mxCell>
        <mxCell id="hDUTuJh5oyR0SM-ZfKDi-22" value="Messaging Service (Chat between Advisor and Supervisor)" style="whiteSpace=wrap;html=1;fontFamily=Verdana;rounded=1;shadow=0;labelBackgroundColor=none;strokeWidth=1;" vertex="1" parent="1">
          <mxGeometry x="820" y="264" width="442" height="56" as="geometry" />
        </mxCell>
        <mxCell id="hDUTuJh5oyR0SM-ZfKDi-24" value="" style="ellipse;whiteSpace=wrap;html=1;fontFamily=Verdana;rounded=1;shadow=0;labelBackgroundColor=none;strokeWidth=1;" vertex="1" parent="1">
          <mxGeometry x="1187" y="200" width="30" height="30" as="geometry" />
        </mxCell>
        <mxCell id="hDUTuJh5oyR0SM-ZfKDi-26" style="edgeStyle=orthogonalEdgeStyle;rounded=0;orthogonalLoop=1;jettySize=auto;html=1;exitX=0.25;exitY=1;exitDx=0;exitDy=0;entryX=0.448;entryY=0.022;entryDx=0;entryDy=0;entryPerimeter=0;" edge="1" parent="1" source="hDUTuJh5oyR0SM-ZfKDi-7" target="hDUTuJh5oyR0SM-ZfKDi-1">
          <mxGeometry relative="1" as="geometry" />
        </mxCell>
        <mxCell id="hDUTuJh5oyR0SM-ZfKDi-27" style="edgeStyle=orthogonalEdgeStyle;rounded=0;orthogonalLoop=1;jettySize=auto;html=1;exitX=0.53;exitY=0.036;exitDx=0;exitDy=0;entryX=0.75;entryY=1;entryDx=0;entryDy=0;exitPerimeter=0;" edge="1" parent="1" source="hDUTuJh5oyR0SM-ZfKDi-1" target="hDUTuJh5oyR0SM-ZfKDi-7">
          <mxGeometry relative="1" as="geometry" />
        </mxCell>
        <mxCell id="hDUTuJh5oyR0SM-ZfKDi-28" style="edgeStyle=orthogonalEdgeStyle;rounded=0;orthogonalLoop=1;jettySize=auto;html=1;exitX=0.25;exitY=1;exitDx=0;exitDy=0;entryX=0.664;entryY=0.049;entryDx=0;entryDy=0;entryPerimeter=0;" edge="1" parent="1" source="hDUTuJh5oyR0SM-ZfKDi-12" target="hDUTuJh5oyR0SM-ZfKDi-1">
          <mxGeometry relative="1" as="geometry" />
        </mxCell>
        <mxCell id="hDUTuJh5oyR0SM-ZfKDi-29" style="edgeStyle=orthogonalEdgeStyle;rounded=0;orthogonalLoop=1;jettySize=auto;html=1;exitX=0.744;exitY=-0.032;exitDx=0;exitDy=0;entryX=0.75;entryY=1;entryDx=0;entryDy=0;exitPerimeter=0;" edge="1" parent="1" source="hDUTuJh5oyR0SM-ZfKDi-1" target="hDUTuJh5oyR0SM-ZfKDi-12">
          <mxGeometry relative="1" as="geometry">
            <Array as="points">
              <mxPoint x="592" y="262" />
            </Array>
          </mxGeometry>
        </mxCell>
        <mxCell id="hDUTuJh5oyR0SM-ZfKDi-30" style="edgeStyle=orthogonalEdgeStyle;rounded=0;orthogonalLoop=1;jettySize=auto;html=1;exitX=0.25;exitY=1;exitDx=0;exitDy=0;entryX=0.882;entryY=-0.005;entryDx=0;entryDy=0;entryPerimeter=0;" edge="1" parent="1" source="hDUTuJh5oyR0SM-ZfKDi-14" target="hDUTuJh5oyR0SM-ZfKDi-1">
          <mxGeometry relative="1" as="geometry" />
        </mxCell>
        <mxCell id="hDUTuJh5oyR0SM-ZfKDi-31" style="edgeStyle=orthogonalEdgeStyle;rounded=0;orthogonalLoop=1;jettySize=auto;html=1;exitX=0.962;exitY=0.036;exitDx=0;exitDy=0;entryX=0.75;entryY=1;entryDx=0;entryDy=0;exitPerimeter=0;" edge="1" parent="1" source="hDUTuJh5oyR0SM-ZfKDi-1" target="hDUTuJh5oyR0SM-ZfKDi-14">
          <mxGeometry relative="1" as="geometry" />
        </mxCell>
        <mxCell id="hDUTuJh5oyR0SM-ZfKDi-32" style="edgeStyle=orthogonalEdgeStyle;rounded=0;orthogonalLoop=1;jettySize=auto;html=1;exitX=0.25;exitY=1;exitDx=0;exitDy=0;entryX=0.072;entryY=0.022;entryDx=0;entryDy=0;entryPerimeter=0;" edge="1" parent="1" source="hDUTuJh5oyR0SM-ZfKDi-16" target="hDUTuJh5oyR0SM-ZfKDi-22">
          <mxGeometry relative="1" as="geometry" />
        </mxCell>
        <mxCell id="hDUTuJh5oyR0SM-ZfKDi-33" style="edgeStyle=orthogonalEdgeStyle;rounded=0;orthogonalLoop=1;jettySize=auto;html=1;exitX=0.208;exitY=0.035;exitDx=0;exitDy=0;entryX=0.75;entryY=1;entryDx=0;entryDy=0;exitPerimeter=0;" edge="1" parent="1" source="hDUTuJh5oyR0SM-ZfKDi-22" target="hDUTuJh5oyR0SM-ZfKDi-16">
          <mxGeometry relative="1" as="geometry" />
        </mxCell>
        <mxCell id="hDUTuJh5oyR0SM-ZfKDi-34" style="edgeStyle=orthogonalEdgeStyle;rounded=0;orthogonalLoop=1;jettySize=auto;html=1;exitX=0.25;exitY=1;exitDx=0;exitDy=0;entryX=0.434;entryY=0.022;entryDx=0;entryDy=0;entryPerimeter=0;" edge="1" parent="1" source="hDUTuJh5oyR0SM-ZfKDi-18" target="hDUTuJh5oyR0SM-ZfKDi-22">
          <mxGeometry relative="1" as="geometry" />
        </mxCell>
        <mxCell id="hDUTuJh5oyR0SM-ZfKDi-35" style="edgeStyle=orthogonalEdgeStyle;rounded=0;orthogonalLoop=1;jettySize=auto;html=1;exitX=0.571;exitY=0.035;exitDx=0;exitDy=0;entryX=0.75;entryY=1;entryDx=0;entryDy=0;exitPerimeter=0;" edge="1" parent="1" source="hDUTuJh5oyR0SM-ZfKDi-22" target="hDUTuJh5oyR0SM-ZfKDi-18">
          <mxGeometry relative="1" as="geometry" />
        </mxCell>
      </root>
    </mxGraphModel>
  </diagram>
</mxfile>
